<svg xmlns="http://www.w3.org/2000/svg" viewBox="0 0 256 262" aria-hidden="true">
  <path fill="#4285F4" d="M255.68 133.47c0-10.02-.9-19.65-2.57-28.9H130.56v54.68h70.03c-3.02 16.3-12.2 30.1-25.99 39.33v32.64h42.03c24.6-22.66 39.05-56.08 39.05-97.75z"/>
  <path fill="#34A853" d="M130.56 261.1c35.3 0 64.92-11.7 86.56-31.67l-42.03-32.64c-11.7 7.83-26.67 12.46-44.53 12.46-34.25 0-63.23-23.12-73.58-54.2H13.52v34.07c21.53 42.77 65.79 71.98 117.04 71.98z"/>
  <path fill="#FBBC05" d="M56.98 155.05c-2.63-7.83-4.13-16.18-4.13-24.79 0-8.61 1.5-16.96 4.13-24.79V71.4H13.52C4.87 88.67 0 108.8 0 130.26s4.87 41.59 13.52 58.86l43.46-34.07z"/>
  <path fill="#EA4335" d="M130.56 51.27c19.2 0 36.46 6.6 50.03 19.53l37.53-37.53C195.43 12.1 165.81 0 130.56 0 79.31 0 35.05 29.21 13.52 71.4l43.46 34.07c10.35-31.08 39.33-54.2 73.58-54.2z"/>
</svg>
