<svg width="72" height="72" viewBox="0 0 72 72" fill="none" xmlns="http://www.w3.org/2000/svg">
  <defs>
    <linearGradient id="mapBg" x1="8" y1="8" x2="64" y2="64" gradientUnits="userSpaceOnUse">
      <stop stop-color="#1a2740"/>
      <stop offset="1" stop-color="#0f1a2b"/>
    </linearGradient>
    <linearGradient id="pinGradient" x1="24" y1="14" x2="48" y2="58" gradientUnits="userSpaceOnUse">
      <stop stop-color="#446dff"/>
      <stop offset="1" stop-color="#7a61ff"/>
    </linearGradient>
    <radialGradient id="pinGlow" cx="0" cy="0" r="1" gradientUnits="userSpaceOnUse" gradientTransform="translate(36 30) rotate(90) scale(22)">
      <stop stop-color="#446dff" stop-opacity="0.35"/>
      <stop offset="1" stop-color="#446dff" stop-opacity="0"/>
    </radialGradient>
  </defs>
  <rect x="6" y="6" width="60" height="60" rx="16" fill="url(#mapBg)" stroke="rgba(167,190,229,0.14)" stroke-width="1.2"/>
  <path d="M14 22H58M14 36H58M14 50H42" stroke="rgba(143,164,205,0.16)" stroke-width="1.2" stroke-linecap="round"/>
  <path d="M22 14V58M36 14V58M50 14V58" stroke="rgba(143,164,205,0.1)" stroke-width="1" stroke-linecap="round"/>
  <circle cx="36" cy="30" r="18" fill="url(#pinGlow)"/>
  <path d="M36 16C28.8203 16 23 21.8203 23 29C23 37.5 36 52 36 52C36 52 49 37.5 49 29C49 21.8203 43.1797 16 36 16Z" fill="url(#pinGradient)"/>
  <circle cx="36" cy="29" r="5.5" fill="#eff5ff"/>
  <circle cx="36" cy="29" r="2.5" fill="#446dff"/>
</svg>
