<svg xmlns="http://www.w3.org/2000/svg" viewBox="0 0 560 180" role="img" aria-labelledby="title desc">
  <title id="title">RekberWE.id</title>
  <desc id="desc">Logo header transparan RekberWE.id</desc>
  <defs>
    <linearGradient id="blueGrad" x1="0%" y1="0%" x2="100%" y2="100%">
      <stop offset="0%" stop-color="#2d7fc2"/>
      <stop offset="100%" stop-color="#174d82"/>
    </linearGradient>
    <linearGradient id="goldGrad" x1="0%" y1="0%" x2="100%" y2="100%">
      <stop offset="0%" stop-color="#f0c443"/>
      <stop offset="100%" stop-color="#c99612"/>
    </linearGradient>
    <filter id="softShadow" x="-20%" y="-20%" width="140%" height="140%">
      <feDropShadow dx="0" dy="8" stdDeviation="8" flood-color="#174d82" flood-opacity="0.16"/>
    </filter>
  </defs>

  <g filter="url(#softShadow)">
    <path d="M106 18c22 0 43 6 60 16 17-10 38-16 60-16 0 31 3 82-9 112-13 31-41 52-51 58-10-6-38-27-51-58-12-30-9-81-9-112Z" fill="none" stroke="url(#blueGrad)" stroke-width="14" stroke-linejoin="round"/>
    <path d="M112 30c20 0 39 5 54 14 15-9 34-14 54-14 0 28 2 72-8 98-11 28-35 46-46 53-11-7-35-25-46-53-10-26-8-70-8-98Z" fill="none" stroke="url(#goldGrad)" stroke-width="10" stroke-linejoin="round" opacity="0.95"/>
    <path d="M138 62l12 62 18-38 18 38 12-62" fill="none" stroke="url(#blueGrad)" stroke-width="14" stroke-linecap="round" stroke-linejoin="round"/>
    <path d="M167 48c5 0 8 3 13 6 4 2 8 2 12 0 5-3 8-6 13-6 4 0 7 3 7 7 0 12-18 20-26 30-8-10-26-18-26-30 0-4 3-7 7-7Z" fill="url(#goldGrad)"/>
  </g>

  <g font-family="Plus Jakarta Sans, Arial, sans-serif">
    <text x="245" y="96" font-size="54" font-weight="800" fill="#1d5f9e">Rekber</text>
    <text x="446" y="96" font-size="54" font-weight="800" fill="url(#goldGrad)">WE.id</text>
    <text x="246" y="132" font-size="22" font-weight="600" fill="#7a7f87">By : Qhead Gold</text>
  </g>
</svg>
